<svg width="80" height="70" viewBox="0 0 80 70" fill="none" xmlns="http://www.w3.org/2000/svg">
<path d="M1.14827 42.936L78.8517 42.9361C79.2092 42.9361 79.5461 42.7696 79.7635 42.4859C79.9808 42.2021 80.0535 41.8333 79.9601 41.4883C77.8462 33.6673 73.1397 26.6115 66.7079 21.6204C60.0699 16.4695 52.1037 13.7467 43.6706 13.7467H22.9874V10.747C22.9874 10.1128 22.4733 9.59869 21.8392 9.59869H7.84237C7.2082 9.59869 6.6941 10.1128 6.6941 10.747V13.7467H1.14827C0.514098 13.7467 0 14.2608 0 14.895V19.8022V28.3414V41.7879C0 42.4219 0.514098 42.936 1.14827 42.936ZM2.29655 22.2428L7.74182 24.9206V27.1932H2.29655V22.2428ZM42.2018 22.0269L65.5495 27.193H42.2018V22.0269ZM43.6708 16.0433C48.3405 16.0433 52.8571 16.933 57.0554 18.654H41.0535C40.4194 18.654 39.9053 19.1681 39.9053 19.8022V28.3414C39.9053 28.9756 40.4194 29.4897 41.0535 29.4897H71.3906C74.0114 32.8179 76.0344 36.6047 77.3176 40.6398L2.29655 40.6394V29.4896H8.89009C9.52427 29.4896 10.0384 28.9755 10.0384 28.3413V19.8021C10.0384 19.1679 9.52427 18.6538 8.89009 18.6538H2.29655V16.0431H43.6708V16.0433Z" fill="url(#paint0_linear_34_2)"/>
<path d="M78.8517 44.4004H1.14827C0.514098 44.4004 0 44.9145 0 45.5487V49.2532C0 49.8873 0.514098 50.4014 1.14827 50.4014H75.1471C77.823 50.4014 80 48.2246 80 45.5487C80 44.9145 79.4859 44.4004 78.8517 44.4004Z" fill="url(#paint1_linear_34_2)"/>
<path d="M27.0304 38.0289H35.8543C36.4885 38.0289 37.0026 37.5148 37.0026 36.8806V19.8022C37.0026 19.1681 36.4885 18.654 35.8543 18.654H27.0304C26.3962 18.654 25.8821 19.1681 25.8821 19.8022V36.8806C25.8821 37.5148 26.396 38.0289 27.0304 38.0289ZM28.1786 35.7324V21.9766L34.7061 25.1866V35.7324H28.1786Z" fill="url(#paint2_linear_34_2)"/>
<path d="M14.0893 29.4896H21.8311C22.4653 29.4896 22.9794 28.9755 22.9794 28.3413V19.8021C22.9794 19.1679 22.4653 18.6538 21.8311 18.6538H14.0893C13.4551 18.6538 12.941 19.1679 12.941 19.8021V28.3413C12.941 28.9757 13.4551 29.4896 14.0893 29.4896ZM15.2376 27.193V22.2427L20.6828 24.9205V27.193H15.2376Z" fill="url(#paint3_linear_34_2)"/>
<defs>
<linearGradient id="paint0_linear_34_2" x1="68" y1="26" x2="-2.71663e-07" y2="26" gradientUnits="userSpaceOnUse">
<stop stop-color="#EC7AB7"/>
<stop offset="1" stop-color="#EC7A7A"/>
</linearGradient>
<linearGradient id="paint1_linear_34_2" x1="80" y1="47" x2="-2.06427e-09" y2="47" gradientUnits="userSpaceOnUse">
<stop stop-color="#EC7AB7"/>
<stop offset="1" stop-color="#EC7A7A"/>
</linearGradient>
<linearGradient id="paint2_linear_34_2" x1="31.4423" y1="18.654" x2="31.4423" y2="38.0289" gradientUnits="userSpaceOnUse">
<stop stop-color="#EC7AB7"/>
<stop offset="1" stop-color="#EC7A7A"/>
</linearGradient>
<linearGradient id="paint3_linear_34_2" x1="17.9602" y1="18.6538" x2="17.9602" y2="29.4896" gradientUnits="userSpaceOnUse">
<stop stop-color="#EC7AB7"/>
<stop offset="1" stop-color="#EC7A7A"/>
</linearGradient>
</defs>
</svg>
